# AST/ASF file generated using VICON BodyLanguage
# -----------------------------------------------
:version 1.10
:name VICON
:units
  mass 1.0
  length 0.45
  angle deg
:documentation
   .ast/.asf automatically generated from VICON data using
   VICON BodyBuilder and BodyLanguage model FoxedUp or BRILLIANT.MOD
:root
   order TX TY TZ RX RY RZ
   axis XYZ
   position 0 0 0  
   orientation 0 0 0 
:bonedata
  begin
     id 1 
     name lhipjoint
     direction 0.64773 -0.699417 0.302095 
     length 2.48597 
     axis 0 0 0  XYZ
  end
  begin
     id 2 
     name lfemur
     direction 0.34202 -0.939693 0  
     length 6.71947  
     axis 0 0 20  XYZ
    dof rx ry rz
    limits (-160.0 20.0)
           (-70.0 70.0)
           (-60.0 70.0)
  end
  begin
     id 3 
     name ltibia
     direction 0.34202 -0.939693 0   
     length 8.08777   
     axis 0 0 20   XYZ
    dof rx
    limits (-10.0 170.0)
  end
  begin
     id 4 
     name lfoot
     direction 0.0808503 -0.222134 0.971658   
     length 2.08264   
     axis -90 7.62852e-016 20   XYZ
    dof rx rz
    limits (-45.0 90.0)
           (-70.0 20.0)
  end
  begin
     id 5 
     name ltoes
     direction 1.53502e-011 -4.22007e-011 1   
     length 1.04662   
     axis -90 7.62852e-016 20   XYZ
    dof rx
    limits (-90.0 20.0)
  end
  begin
     id 6 
     name rhipjoint
     direction -0.610924 -0.726792 0.313919   
     length 2.39233  
     axis 0 0 0  XYZ 
  end
  begin
     id 7 
     name rfemur
     direction -0.34202 -0.939693 0   
     length 6.96955   
     axis 0 0 -20   XYZ
    dof rx ry rz
    limits (-160.0 20.0)
           (-70.0 70.0)
           (-70.0 60.0)
  end
  begin
     id 8 
     name rtibia
     direction -0.34202 -0.939693 0   
     length 8.19584   
     axis 0 0 -20   XYZ
    dof rx
    limits (-10.0 170.0)
 end
 begin
     id 9 
     name rfoot
     direction -0.077777 -0.213691 0.9738   
     length 2.07539  
     axis -90 -7.62852e-016 -20   XYZ
    dof rx rz
    limits (-45.0 90.0)
           (-20.0 70.0)
  end
  begin
     id 10 
     name rtoes
     direction -1.53558e-011 -4.22006e-011 1   
     length 1.04381   
     axis -90 -7.62852e-016 -20   XYZ
    dof rx
    limits (-90.0 20.0)
  end
  begin
     id 11 
     name lowerback
     direction -0.00971646 0.996074 0.0879841   
     length 1.67643   
     axis 0 0 0   XYZ
    dof rx ry rz
    limits (-20.0 45.0)
           (-30.0 30.0)
           (-30.0 30.0)
  end
  begin
     id 12 
     name upperback
     direction 0.0127391 0.991676 0.128127   
     length 1.63741   
     axis 0 0 0   XYZ
    dof rx ry rz
    limits (-20.0 45.0)
           (-30.0 30.0)
           (-30.0 30.0)
  end
  begin
     id 13 
     name thorax
     direction 0.0167583 0.996049 0.0872067   
     length 1.65931   
     axis 0 0 0   XYZ
    dof rx ry rz
    limits (-20.0 45.0)
           (-30.0 30.0)
           (-30.0 30.0)
  end
  begin
     id 14 
     name lowerneck
     direction -0.0317829 0.998312 0.0486079   
     length 1.79021   
     axis 0 0 0   XYZ
    dof rx ry rz
    limits (-20.0 45.0)
           (-30.0 30.0)
           (-30.0 30.0)
  end
  begin
     id 15 
     name upperneck
     direction 0.0896851 0.972452 -0.215159   
     length 1.78797   
     axis 0 0 0   XYZ
    dof rx ry rz
    limits (-20.0 45.0)
           (-30.0 30.0)
           (-30.0 30.0)
  end
  begin
     id 16
     name head
     direction 0.0310949 0.996503 -0.0775582  
     length 1.81549  
     axis 0 0 0   XYZ
    dof rx ry rz
    limits (-20.0 45.0)
           (-30.0 30.0)
           (-30.0 30.0)
  end
  begin
     id 17 
     name lclavicle
     direction 0.853638 0.502051 -0.138733  
     length 3.31627  
     axis 0 0 0   XYZ
    dof ry rz
    limits (-20.0 10.0)
           (0.0 20.0)
  end
  begin
     id 18 
     name lhumerus
     direction 1 -4.48962e-011 -1.41788e-018   
     length 5.54893   
     axis 180 -30 -90   XYZ
    dof rx ry rz
    limits (-60.0 90.0)
           (-90.0 90.0)
           (-90.0 90.0)
  end
  begin
     id 19
     name lradius
     direction 1 -4.48962e-011 -4.95754e-027   
     length 3.02898   
     axis 180 -30 -90   XYZ
    dof rx
    limits (-10.0 170.0)
  end
  begin
     id 20
     name lwrist
     direction 1 -4.48952e-011 -1.03764e-026   
     length 1.51449   
     axis 9.09556e-015 90 90   XYZ
    dof ry
    limits (-180.0 0.0)
 end
  begin
     id 21 
     name lhand
     direction 1 -4.4902e-011 -2.07528e-026   
     length 0.640951   
     axis 1.3242e-014 90 90   XYZ
    dof rx rz
    limits (-90.0 90.0)
           (-45.0 45.0)
  end
  begin
     id 22 
     name lfingers
     direction 1 -4.49014e-011 -4.15056e-026   
     length 0.516751   
     axis 2.64841e-014 90 90   XYZ
    dof rx
    limits (0.0 90.0)
  end
  begin
     id 23
     name lthumb
     direction 0.707107 -6.35008e-011 0.707107   
     length 0.741954   
     axis -90 45 2.85299e-015   XYZ
    dof rx rz
    limits (-45.0 45.0)
           (-45.0 45.0)
  end
  begin
     id 24 
     name rclavicle
     direction -0.888531 0.455324 -0.0565039   
     length 3.20126  
     axis 0 0 0   XYZ 
    dof ry rz
    limits (-10.0 20.0)
           (-20.0 0.0)
  end
  begin
     id 25 
     name rhumerus
     direction -1 -4.48946e-011 -8.98298e-028  
     length 5.3519   
     axis 180 30 90   XYZ
    dof rx ry rz
    limits (-90.0 60.0)
           (-90.0 90.0)
           (-90.0 90.0)
  end
  begin
     id 26 
     name rradius
     direction -1 -4.4899e-011 -3.18779e-027   
     length 3.02531   
     axis 180 30 90   XYZ
    dof rx
    limits (-10.0 170.0)
  end
  begin
     id 27 
     name rwrist
     direction -1 -4.4897e-011 -1.03764e-026   
     length 1.51266   
     axis 9.09556e-015 -90 -90   XYZ
    dof ry
    limits (-180.0 0.0)
  end
  begin
     id 28
     name rhand
     direction -1 -4.48941e-011 -2.07528e-026   
     length 0.78389   
     axis 1.3242e-014 -90 -90   XYZ
    dof rx rz
    limits (-90.0 90.0)
           (-45.0 45.0)
  end
  begin
     id 29
     name rfingers
     direction -1 -4.49012e-011 -4.15056e-026   
     length 0.631992   
     axis 2.64841e-014 -90 -90   XYZ
    dof rx
    limits (0.0 90.0)
  end
  begin
     id 30
     name rthumb
     direction -0.707107 -6.3496e-011 0.707107   
     length 0.907418   
     axis -90 -45 -2.85299e-015   XYZ
    dof rx rz
    limits (-45.0 45.0)
           (-45.0 45.0)
  end
:hierarchy
  begin
    root lhipjoint rhipjoint lowerback
    lhipjoint lfemur
    lfemur ltibia
    ltibia lfoot
    lfoot ltoes
    rhipjoint rfemur
    rfemur rtibia
    rtibia rfoot
    rfoot rtoes
    lowerback upperback
    upperback thorax
    thorax lowerneck lclavicle rclavicle
    lowerneck upperneck
    upperneck head
    lclavicle lhumerus
    lhumerus lradius
    lradius lwrist
    lwrist lhand lthumb
    lhand lfingers
    rclavicle rhumerus
    rhumerus rradius
    rradius rwrist
    rwrist rhand rthumb
    rhand rfingers
  end

#!OML:ASF E:\Style3\Style3.ASF
:FULLY-SPECIFIED
:DEGREES
2304
root 1.05024 17.7728 0.777912 79.5441 90.4446 61.5608
lowerback -13.0556 -2.3538 -0.222029
upperback -12.2132 -2.25353 1.81413
thorax -5.54645 -0.694716 1.82135
lowerneck -11.7282 -2.53853 -5.72748
upperneck 25.3814 -3.6088 6.72759
head 10.2418 -1.25232 2.95773
rclavicle -2.28602e-014 1.94809e-014
rhumerus -58.5741 19.8632 -98.8396
rradius 74.9945
rwrist -15.3999
rhand -21.3752 33.852
rfingers 7.12502
rthumb 5.01206 3.93132
lclavicle -2.28602e-014 1.94809e-014
lhumerus -57.4072 -1.65475 89.7251
lradius 71.2757
lwrist 16.3801
lhand -20.2374 8.6785
lfingers 7.12502
lthumb 6.11064 38.5704
rfemur -15.3258 12.207 18.3787
rtibia 15.3779
rfoot -16.9676 -21.6545
rtoes -13.7339
lfemur 0 0 0
ltibia 0
lfoot 0 0
ltoes 0
2305
root 1.05023 17.7719 0.775948 95.6105 90.4357 77.6732
lowerback -12.9303 -2.33502 -0.200496
upperback -12.2281 -2.2309 1.84988
thorax -5.63086 -0.683445 1.8529
lowerneck -11.6831 -2.53104 -5.84421
upperneck 25.4199 -3.59301 6.80476
head 10.2494 -1.24694 3.00885
rclavicle 7.15625e-015 -3.02153e-014
rhumerus -58.8247 19.8846 -99.0309
rradius 73.493
rwrist -15.544
rhand -20.8718 33.4597
rfingers 7.12502
rthumb 5.49815 3.55102
lclavicle 7.15625e-015 -3.02153e-014
lhumerus -57.6939 -1.38762 89.6685
lradius 69.9506
lwrist 16.4465
lhand -20.1571 8.97508
lfingers 7.12502
lthumb 6.18814 38.8647
rfemur -15.318 12.1293 18.4033
rtibia 15.4172
rfoot -16.8933 -21.5002
rtoes -14.1144
lfemur 0 0 0
ltibia 0
lfoot 0 0
ltoes 0
2306
root 1.05041 17.7725 0.775774 102.963 90.4736 85.0162
lowerback -12.8846 -2.30272 -0.153017
upperback -12.2401 -2.19233 1.82586
thorax -5.67292 -0.668204 1.80573
lowerneck -11.6789 -2.55344 -5.80233
upperneck 25.4517 -3.64426 6.8432
head 10.2639 -1.26102 3.01001
rclavicle 1.42131e-014 5.96354e-015
rhumerus -58.9772 19.6954 -99.1571
rradius 71.9736
rwrist -15.5
rhand -20.645 33.4231
rfingers 7.12502
rthumb 5.71708 3.52026
lclavicle 1.42131e-014 5.96354e-015
lhumerus -57.9727 -1.29167 89.5769
lradius 68.7326
lwrist 16.6402
lhand -20.0718 9.15264
lfingers 7.12502
lthumb 6.27047 39.0398
rfemur -15.3905 12.1305 18.4382
rtibia 15.503
rfoot -16.9581 -21.424
rtoes -13.9389
lfemur 0 0 0
ltibia 0
lfoot 0 0
ltoes 0
2307
root 1.05064 17.7735 0.776036 109.1 90.4194 91.1377
lowerback -12.8445 -2.27925 -0.22808
upperback -12.2432 -2.15736 1.78531
thorax -5.69762 -0.647145 1.80889
lowerneck -11.6722 -2.58903 -5.72509
upperneck 25.4269 -3.69765 6.78617
head 10.255 -1.28534 2.96884
rclavicle -1.71949e-014 1.31198e-014
rhumerus -59.0422 19.5414 -99.2501
rradius 70.4794
rwrist -15.5227
rhand -20.2256 33.2453
rfingers 7.12502
rthumb 6.12197 3.35379
lclavicle -1.71949e-014 1.31198e-014
lhumerus -58.1173 -1.2837 89.5088
lradius 67.4775
lwrist 17.0218
lhand -19.8889 9.20253
lfingers 7.12502
lthumb 6.44707 39.0844
rfemur -15.461 12.1716 18.3569
rtibia 15.5876
rfoot -17.1043 -21.374
rtoes -13.5432
lfemur 0 0 0
ltibia 0
lfoot 0 0
ltoes 0
2308
root 1.0509 17.7735 0.776148 131.67 90.251 113.653
lowerback -12.8822 -2.31027 -0.468601
upperback -12.2507 -2.18017 1.75657
thorax -5.67629 -0.642357 1.91024
lowerneck -11.6275 -2.59614 -5.73557
upperneck 25.4072 -3.71365 6.81432
head 10.2411 -1.29133 2.97851
rclavicle 3.8763e-015 1.03368e-014
rhumerus -59.0902 19.477 -99.3306
rradius 68.9956
rwrist -15.2958
rhand -19.8419 32.81
rfingers 7.12502
rthumb 6.49248 2.92955
lclavicle 3.8763e-015 1.03368e-014
lhumerus -58.2314 -1.16095 89.3972
lradius 66.2123
lwrist 17.5858
lhand -19.5864 8.95767
lfingers 7.12502
lthumb 6.73908 38.8304
rfemur -15.5785 12.1943 18.1135
rtibia 15.6718
rfoot -17.0761 -21.4042
rtoes -13.7304
lfemur 0 0 0
ltibia 0
lfoot 0 0
ltoes 0
2309
root 1.05196 17.7729 0.777824 148.776 90.2746 130.716
lowerback -12.8941 -2.28621 -0.542801
upperback -12.2715 -2.13968 1.76185
thorax -5.69147 -0.614992 1.9605
lowerneck -11.6175 -2.61208 -5.74761
upperneck 25.4622 -3.72743 6.78933
head 10.26 -1.30038 2.97135
rclavicle 1.8487e-014 3.18055e-015
rhumerus -59.0659 19.3462 -99.3022
rradius 67.4898
rwrist -15.054
rhand -19.6496 32.8054
rfingers 7.12502
rthumb 6.67808 2.93071
lclavicle 1.8487e-014 3.18055e-015
lhumerus -58.3761 -1.11645 89.3944
lradius 64.9997
lwrist 17.8963
lhand -19.4519 9.14785
lfingers 7.12502
lthumb 6.86893 39.0164
rfemur -15.6637 12.2628 18.0574
rtibia 15.7309
rfoot -17.0966 -21.408
rtoes -13.7357
lfemur 0 0 0
ltibia 0
lfoot 0 0
ltoes 0
2310
root 1.05227 17.7732 0.778381 153.195 90.3051 135.116
lowerback -12.9284 -2.2487 -0.555834
upperback -12.2408 -2.09146 1.75502
thorax -5.64043 -0.591587 1.9629
lowerneck -11.5708 -2.64582 -5.81895
upperneck 25.4078 -3.77446 6.84593
head 10.2372 -1.32405 2.99705
rclavicle -1.47101e-014 0
rhumerus -58.9632 19.1676 -99.2528
rradius 65.9931
rwrist -14.7518
rhand -19.5284 32.9162
rfingers 7.12502
rthumb 6.79513 3.04528
lclavicle -1.47101e-014 0
lhumerus -58.3862 -1.18647 89.4456
lradius 63.6677
lwrist 17.8704
lhand -19.6521 9.19764
lfingers 7.12502
lthumb 6.67563 39.0724
rfemur -15.6689 12.2885 18.0517
rtibia 15.7034
rfoot -17.0958 -21.3864
rtoes -13.8352
lfemur 0 0 0
ltibia 0
lfoot 0 0
ltoes 0
2311
root 1.05132 17.7736 0.776925 135.988 90.3146 117.913
lowerback -12.882 -2.23254 -0.452386
upperback -12.2431 -2.07841 1.75244
thorax -5.67253 -0.592429 1.9047
lowerneck -11.4984 -2.65706 -5.85321
upperneck 25.3555 -3.79734 6.89939
head 10.2075 -1.33338 3.01844
rclavicle -2.68359e-015 -4.37326e-015
rhumerus -58.8798 19.0096 -99.231
rradius 64.4015
rwrist -14.2932
rhand -19.4137 32.9066
rfingers 7.12502
rthumb 6.90581 3.03923
lclavicle -2.68359e-015 -4.37326e-015
lhumerus -58.4066 -1.21683 89.4696
lradius 62.3353
lwrist 17.8406
lhand -19.6909 8.94721
lfingers 7.12502
lthumb 6.63824 38.8232
rfemur -15.5756 12.3007 18.1268
rtibia 15.5384
rfoot -17.0606 -21.4227
rtoes -13.5749
lfemur 0 0 0
ltibia 0
lfoot 0 0
ltoes 0
2312
root 1.05088 17.7731 0.776612 114.009 90.5013 96.0054
lowerback -12.7603 -2.23999 -0.235214
upperback -12.2292 -2.10631 1.82939
thorax -5.7274 -0.619891 1.86543
lowerneck -11.408 -2.63828 -5.87756
upperneck 25.2943 -3.77315 6.92431
head 10.1667 -1.32396 3.03349
rclavicle 1.25234e-014 1.23246e-014
rhumerus -58.7217 18.9405 -99.2198
rradius 62.6696
rwrist -13.7936
rhand -19.2201 32.5938
rfingers 7.12502
rthumb 7.09268 2.73263
lclavicle 1.25234e-014 1.23246e-014
lhumerus -58.3952 -1.17911 89.4772
lradius 61.0318
lwrist 17.9863
lhand -20.0931 8.93605
lfingers 7.12502
lthumb 6.24997 38.8238
rfemur -15.3709 12.3664 18.394
rtibia 15.3085
rfoot -16.9559 -21.5045
rtoes -13.5579
lfemur 0 0 0
ltibia 0
lfoot 0 0
ltoes 0
2313
root 1.05088 17.7721 0.779808 106.774 90.7625 88.7722
lowerback -12.8027 -2.22526 -0.00629599
upperback -12.178 -2.10569 1.91604
thorax -5.65371 -0.634305 1.82673
lowerneck -11.3665 -2.63737 -5.91277
upperneck 25.2008 -3.77241 6.95517
head 10.1259 -1.32624 3.04851
rclavicle -1.65985e-014 -1.47101e-014
rhumerus -58.5375 18.9772 -99.274
rradius 61.021
rwrist -13.5053
rhand -19.2307 32.4136
rfingers 7.12502
rthumb 7.08246 2.55211
lclavicle -1.65985e-014 -1.47101e-014
lhumerus -58.3063 -1.18256 89.5259
lradius 59.7694
lwrist 18.332
lhand -20.6932 8.77647
lfingers 7.12502
lthumb 5.67052 38.6806
rfemur -15.2818 12.5233 18.683
rtibia 15.1474
rfoot -16.8618 -21.666
rtoes -13.3204
lfemur 0 0 0
ltibia 0
lfoot 0 0
ltoes 0
2314
root 1.04853 17.7723 0.780505 108.783 90.9172 90.7848
lowerback -12.7978 -2.15313 0.106573
upperback -12.1358 -2.02194 1.94249
thorax -5.61572 -0.600905 1.79739
lowerneck -11.3588 -2.68432 -5.94179
upperneck 25.1518 -3.84075 6.98829
head 10.1132 -1.35791 3.0558
rclavicle 1.37161e-014 1.27222e-014
rhumerus -58.317 18.8915 -99.2573
rradius 59.5185
rwrist -13.2819
rhand -18.777 32.1902
rfingers 7.12502
rthumb 7.52043 2.34392
lclavicle 1.37161e-014 1.27222e-014
lhumerus -58.1051 -1.27134 89.5367
lradius 58.3348
lwrist 18.1272
lhand -20.7619 8.30594
lfingers 7.12502
lthumb 5.60419 38.2118
rfemur -15.252 12.5208 18.8459
rtibia 15.0691
rfoot -16.8164 -21.5737
rtoes -13.3136
lfemur 0 0 0
ltibia 0
lfoot 0 0
ltoes 0
2315
root 1.04817 17.7733 0.777252 121.643 90.7445 103.546
lowerback -12.8937 -2.07644 -0.0673088
upperback -12.15 -1.90736 1.83183
thorax -5.58042 -0.534596 1.78472
lowerneck -11.3595 -2.73974 -5.9024
upperneck 25.1951 -3.92517 6.97831
head 10.1346 -1.39272 3.03621
rclavicle -3.72721e-014 -4.37326e-015
rhumerus -58.1357 18.8371 -99.3602
rradius 57.9822
rwrist -13.264
rhand -18.7784 31.924
rfingers 7.12502
rthumb 7.51905 2.0776
lclavicle -3.72721e-014 -4.37326e-015
lhumerus -57.9072 -1.4108 89.5322
lradius 56.8241
lwrist 17.4612
lhand -20.8734 8.28302
lfingers 7.12502
lthumb 5.49655 38.1917
rfemur -15.4027 12.2763 18.596
rtibia 15.1009
rfoot -16.7546 -21.2744
rtoes -13.4482
lfemur 0 0 0
ltibia 0
lfoot 0 0
ltoes 0
2316
root 1.04765 17.7734 0.774251 129.298 90.638 111.143
lowerback -13.0516 -2.05483 -0.170742
upperback -12.0882 -1.87645 1.78302
thorax -5.42564 -0.516512 1.78868
lowerneck -11.4138 -2.75229 -5.9189
upperneck 25.208 -3.94176 6.99339
head 10.1519 -1.39942 3.04244
rclavicle -3.8763e-015 -1.39149e-014
rhumerus -57.8029 18.8363 -99.3741
rradius 56.4104
rwrist -13.1156
rhand -18.9838 31.974
rfingers 7.12502
rthumb 7.32082 2.12062
lclavicle -3.8763e-015 -1.39149e-014
lhumerus -57.6499 -1.46483 89.5594
lradius 55.436
lwrist 16.894
lhand -20.6653 8.5258
lfingers 7.12502
lthumb 5.69752 38.4292
rfemur -15.5187 12.1183 18.4373
rtibia 15.1885
rfoot -16.7313 -21.1406
rtoes -13.9233
lfemur 0 0 0
ltibia 0
lfoot 0 0
ltoes 0
